<svg xmlns="http://www.w3.org/2000/svg" viewBox="0 0 24 24" width="24" height="24" role="img" aria-label="Instagram icon">
  <path fill="#ffffff" d="M7.75 2h8.5A5.76 5.76 0 0 1 22 7.75v8.5A5.76 5.76 0 0 1 16.25 22h-8.5A5.76 5.76 0 0 1 2 16.25v-8.5A5.76 5.76 0 0 1 7.75 2Zm0 2A3.75 3.75 0 0 0 4 7.75v8.5A3.75 3.75 0 0 0 7.75 20h8.5A3.75 3.75 0 0 0 20 16.25v-8.5A3.75 3.75 0 0 0 16.25 4h-8.5Zm4.25 3.25A4.75 4.75 0 1 1 12 16.75a4.75 4.75 0 0 1 0-9.5Zm0 2A2.75 2.75 0 1 0 12 14.75a2.75 2.75 0 0 0 0-5.5Zm5-2.75a1.25 1.25 0 1 1 0 2.5a1.25 1.25 0 0 1 0-2.5Z"/>
</svg>
